<?xml version="1.0" standalone="no"?>
<!DOCTYPE svg PUBLIC "-//W3C//DTD SVG 1.1//EN" "http://www.w3.org/Graphics/SVG/1.1/DTD/svg11.dtd">
<svg t="1680922480969" class="icon" viewBox="0 0 1024 1024" version="1.1" xmlns="http://www.w3.org/2000/svg" p-id="9432" xmlns:xlink="http://www.w3.org/1999/xlink" width="200" height="200">
  <path d="M512 962A450 450 0 1 1 962 512 450.72 450.72 0 0 1 512 962z m0-838.8a388.8 388.8 0 1 0 388.8 388.8A389.16 389.16 0 0 0 512 123.2z" fill="#999999" p-id="9433"></path>
  <path d="M634.04 590.84L555.2 512l78.84-78.84a30.96 30.96 0 0 0 0-43.56 30.6 30.6 0 0 0-43.2 0l-78.84 79.2-78.84-79.2a30.96 30.96 0 1 0-43.2 43.56l78.84 78.84-78.84 78.84a30.6 30.6 0 0 0 0 43.2 30.96 30.96 0 0 0 43.56 0l78.84-78.84 78.84 78.84a30.6 30.6 0 0 0 43.2-43.2z" fill="#999999" p-id="9434"></path>
</svg>
