<?xml version="1.0" standalone="no"?><!DOCTYPE svg PUBLIC "-//W3C//DTD SVG 1.1//EN" "http://www.w3.org/Graphics/SVG/1.1/DTD/svg11.dtd"><svg t="1680749482345" class="icon" viewBox="0 0 1024 1024" version="1.1" xmlns="http://www.w3.org/2000/svg" p-id="8933" xmlns:xlink="http://www.w3.org/1999/xlink" width="200" height="200"><path d="M512 512m-433.230769 0a433.230769 433.230769 0 1 0 866.461538 0 433.230769 433.230769 0 1 0-866.461538 0Z" fill="#212A39" p-id="8934"></path><path d="M324.923077 512.472615a39.384615 39.384615 0 0 1 39.384615-39.384615v216.615385h295.384616v-177.23077h-295.384616v-39.384615h295.384616a39.384615 39.384615 0 0 1 39.384615 39.384615v177.23077a39.384615 39.384615 0 0 1-39.384615 39.384615h-295.384616a39.384615 39.384615 0 0 1-39.384615-39.384615v-177.23077z" fill="#FFFFFF" p-id="8935"></path><path d="M512 334.769231a78.769231 78.769231 0 0 0-78.769231 78.769231v78.76923a19.692308 19.692308 0 0 1-39.384615 0v-78.76923a118.153846 118.153846 0 0 1 236.307692 0v78.76923a19.692308 19.692308 0 0 1-39.384615 0v-78.76923a78.769231 78.769231 0 0 0-78.769231-78.769231zM512 551.384615a19.692308 19.692308 0 0 1 19.692308 19.692308V630.153846a19.692308 19.692308 0 0 1-39.384616 0v-59.076923a19.692308 19.692308 0 0 1 19.692308-19.692308z" fill="#FFFFFF" p-id="8936"></path></svg>